<svg width="275" height="183" viewBox="0 0 275 183" fill="none" xmlns="http://www.w3.org/2000/svg">
<path d="M8.96 94.36C7.89333 94.36 7.36 93.8267 7.36 92.76V80.44C7.36 79.6933 7.52 79.0533 7.84 78.52L43.04 3.47998C43.4667 2.62665 44.2133 2.19998 45.28 2.19998H60.48C61.6533 2.19998 62.0267 2.67998 61.6 3.63998L27.04 78.04V78.36H51.68C52.32 78.36 52.64 78.04 52.64 77.4V50.2C52.64 49.1333 53.1733 48.6 54.24 48.6H68.96C70.0267 48.6 70.56 49.1333 70.56 50.2V77.4C70.56 78.04 70.88 78.36 71.52 78.36H79.52C80.5867 78.36 81.12 78.8933 81.12 79.96V92.76C81.12 93.8267 80.5867 94.36 79.52 94.36H71.52C70.88 94.36 70.56 94.68 70.56 95.32V109.4C70.56 110.467 70.0267 111 68.96 111H54.24C53.1733 111 52.64 110.467 52.64 109.4V95.32C52.64 94.68 52.32 94.36 51.68 94.36H8.96ZM100.773 91.48C99.2792 86.7867 98.5325 75.16 98.5325 56.6C98.5325 38.04 99.2792 26.4133 100.773 21.72C105.253 7.53331 115.546 0.439978 131.653 0.439978C147.653 0.439978 157.999 7.53331 162.693 21.72C164.186 26.4133 164.933 38.04 164.933 56.6C164.933 75.16 164.186 86.7867 162.693 91.48C157.999 105.667 147.653 112.76 131.653 112.76C115.546 112.76 105.253 105.667 100.773 91.48ZM118.373 88.12C120.399 93.88 124.826 96.76 131.653 96.76C138.479 96.76 142.959 93.88 145.093 88.12C146.053 85.24 146.533 74.7333 146.533 56.6C146.533 38.4666 146.053 27.96 145.093 25.08C142.959 19.32 138.479 16.44 131.653 16.44C124.826 16.44 120.399 19.32 118.373 25.08C117.413 27.96 116.933 38.4666 116.933 56.6C116.933 74.7333 117.413 85.24 118.373 88.12ZM184.585 94.36C183.518 94.36 182.985 93.8267 182.985 92.76V80.44C182.985 79.6933 183.145 79.0533 183.465 78.52L218.665 3.47998C219.092 2.62665 219.838 2.19998 220.905 2.19998H236.105C237.278 2.19998 237.652 2.67998 237.225 3.63998L202.665 78.04V78.36H227.305C227.945 78.36 228.265 78.04 228.265 77.4V50.2C228.265 49.1333 228.798 48.6 229.865 48.6H244.585C245.652 48.6 246.185 49.1333 246.185 50.2V77.4C246.185 78.04 246.505 78.36 247.145 78.36H255.145C256.212 78.36 256.745 78.8933 256.745 79.96V92.76C256.745 93.8267 256.212 94.36 255.145 94.36H247.145C246.505 94.36 246.185 94.68 246.185 95.32V109.4C246.185 110.467 245.652 111 244.585 111H229.865C228.798 111 228.265 110.467 228.265 109.4V95.32C228.265 94.68 227.945 94.36 227.305 94.36H184.585Z" fill="#3E3F3C"/>
<path d="M79.1 147.72V129.24C79.1 129.053 79.1933 128.96 79.38 128.96H81.956C82.1613 128.96 82.32 129.053 82.432 129.24L90.188 142.372H90.3V129.24C90.3 129.053 90.3933 128.96 90.58 128.96H93.016C93.2027 128.96 93.296 129.053 93.296 129.24V147.72C93.296 147.907 93.2027 148 93.016 148H90.468C90.2627 148 90.104 147.907 89.992 147.72L82.208 134.616H82.096V147.72C82.096 147.907 82.0027 148 81.816 148H79.38C79.1933 148 79.1 147.907 79.1 147.72ZM102.738 148.308C101.357 148.308 100.172 147.981 99.1823 147.328C98.2117 146.675 97.5397 145.76 97.1663 144.584C96.8677 143.669 96.7183 142.559 96.7183 141.252C96.7183 139.945 96.8677 138.835 97.1663 137.92C97.5397 136.744 98.2117 135.829 99.1823 135.176C100.172 134.523 101.357 134.196 102.738 134.196C104.101 134.196 105.268 134.523 106.238 135.176C107.228 135.829 107.909 136.744 108.282 137.92C108.581 138.835 108.73 139.945 108.73 141.252C108.73 142.559 108.581 143.669 108.282 144.584C107.909 145.76 107.228 146.675 106.238 147.328C105.268 147.981 104.101 148.308 102.738 148.308ZM102.738 145.508C104.008 145.508 104.848 144.92 105.258 143.744C105.445 143.165 105.538 142.335 105.538 141.252C105.538 140.188 105.445 139.357 105.258 138.76C104.848 137.584 104.008 136.996 102.738 136.996C101.45 136.996 100.601 137.584 100.19 138.76C100.004 139.357 99.9103 140.188 99.9103 141.252C99.9103 142.335 100.004 143.165 100.19 143.744C100.601 144.92 101.45 145.508 102.738 145.508ZM117.395 148.168H116.051C114.725 148.168 113.764 147.851 113.167 147.216C112.588 146.563 112.299 145.564 112.299 144.22V137.108C112.299 136.996 112.243 136.94 112.131 136.94H111.235C111.048 136.94 110.955 136.847 110.955 136.66V134.784C110.955 134.597 111.048 134.504 111.235 134.504H112.131C112.243 134.504 112.299 134.448 112.299 134.336V130.64C112.299 130.453 112.392 130.36 112.579 130.36H115.155C115.341 130.36 115.435 130.453 115.435 130.64V134.336C115.435 134.448 115.491 134.504 115.603 134.504H117.395C117.581 134.504 117.675 134.597 117.675 134.784V136.66C117.675 136.847 117.581 136.94 117.395 136.94H115.603C115.491 136.94 115.435 136.996 115.435 137.108V144.108C115.435 144.575 115.528 144.901 115.715 145.088C115.92 145.275 116.247 145.368 116.695 145.368H117.395C117.581 145.368 117.675 145.461 117.675 145.648V147.888C117.675 148.075 117.581 148.168 117.395 148.168ZM127.772 147.72V129.24C127.772 129.053 127.865 128.96 128.052 128.96H139.98C140.167 128.96 140.26 129.053 140.26 129.24V131.648C140.26 131.835 140.167 131.928 139.98 131.928H131.244C131.132 131.928 131.076 131.984 131.076 132.096V136.94C131.076 137.052 131.132 137.108 131.244 137.108H138.608C138.795 137.108 138.888 137.201 138.888 137.388V139.796C138.888 139.983 138.795 140.076 138.608 140.076H131.244C131.132 140.076 131.076 140.132 131.076 140.244V147.72C131.076 147.907 130.983 148 130.796 148H128.052C127.865 148 127.772 147.907 127.772 147.72ZM147.691 148.308C146.31 148.308 145.125 147.981 144.135 147.328C143.165 146.675 142.493 145.76 142.119 144.584C141.821 143.669 141.671 142.559 141.671 141.252C141.671 139.945 141.821 138.835 142.119 137.92C142.493 136.744 143.165 135.829 144.135 135.176C145.125 134.523 146.31 134.196 147.691 134.196C149.054 134.196 150.221 134.523 151.191 135.176C152.181 135.829 152.862 136.744 153.235 137.92C153.534 138.835 153.683 139.945 153.683 141.252C153.683 142.559 153.534 143.669 153.235 144.584C152.862 145.76 152.181 146.675 151.191 147.328C150.221 147.981 149.054 148.308 147.691 148.308ZM147.691 145.508C148.961 145.508 149.801 144.92 150.211 143.744C150.398 143.165 150.491 142.335 150.491 141.252C150.491 140.188 150.398 139.357 150.211 138.76C149.801 137.584 148.961 136.996 147.691 136.996C146.403 136.996 145.554 137.584 145.143 138.76C144.957 139.357 144.863 140.188 144.863 141.252C144.863 142.335 144.957 143.165 145.143 143.744C145.554 144.92 146.403 145.508 147.691 145.508ZM167.92 148H165.344C165.157 148 165.064 147.907 165.064 147.72V146.74H165.036C164.214 147.785 163.048 148.308 161.536 148.308C160.117 148.308 158.988 147.841 158.148 146.908C157.308 145.975 156.888 144.771 156.888 143.296V134.784C156.888 134.597 156.981 134.504 157.168 134.504H159.744C159.93 134.504 160.024 134.597 160.024 134.784V142.568C160.024 143.464 160.238 144.183 160.668 144.724C161.097 145.247 161.722 145.508 162.544 145.508C163.328 145.508 163.944 145.247 164.392 144.724C164.84 144.183 165.064 143.473 165.064 142.596V134.784C165.064 134.597 165.157 134.504 165.344 134.504H167.92C168.106 134.504 168.2 134.597 168.2 134.784V147.72C168.2 147.907 168.106 148 167.92 148ZM183.402 148H180.826C180.64 148 180.546 147.907 180.546 147.72V139.936C180.546 139.04 180.322 138.331 179.874 137.808C179.445 137.267 178.82 136.996 177.998 136.996C177.196 136.996 176.561 137.267 176.094 137.808C175.646 138.349 175.422 139.059 175.422 139.936V147.72C175.422 147.907 175.329 148 175.142 148H172.566C172.38 148 172.286 147.907 172.286 147.72V134.784C172.286 134.597 172.38 134.504 172.566 134.504H175.142C175.329 134.504 175.422 134.597 175.422 134.784V135.764H175.45C176.178 134.719 177.364 134.196 179.006 134.196C180.425 134.196 181.554 134.663 182.394 135.596C183.253 136.529 183.682 137.733 183.682 139.208V147.72C183.682 147.907 183.589 148 183.402 148ZM198.518 148H195.942C195.755 148 195.662 147.907 195.662 147.72V146.712H195.634C194.887 147.776 193.693 148.308 192.05 148.308C189.642 148.308 188.083 147.225 187.374 145.06C187.057 144.089 186.898 142.82 186.898 141.252C186.898 139.684 187.057 138.415 187.374 137.444C188.083 135.279 189.642 134.196 192.05 134.196C193.693 134.196 194.887 134.728 195.634 135.792H195.662V129.24C195.662 129.053 195.755 128.96 195.942 128.96H198.518C198.705 128.96 198.798 129.053 198.798 129.24V147.72C198.798 147.907 198.705 148 198.518 148ZM192.862 145.508C194.169 145.508 195.009 144.929 195.382 143.772C195.569 143.193 195.662 142.353 195.662 141.252C195.662 140.151 195.569 139.311 195.382 138.732C195.009 137.575 194.169 136.996 192.862 136.996C191.574 136.996 190.743 137.575 190.37 138.732C190.183 139.311 190.09 140.151 190.09 141.252C190.09 142.353 190.183 143.193 190.37 143.772C190.743 144.929 191.574 145.508 192.862 145.508Z" fill="#3E3F3C"/>
<path d="M211.517 93.6439L204.893 101.19L228.254 121.697L234.878 114.151L211.517 93.6439Z" fill="#EBEBEB"/>
<path d="M145.308 42.2221C139.776 48.5286 136.237 56.3339 135.14 64.6512C134.042 72.9686 135.435 81.4246 139.143 88.9503C142.85 96.4761 148.706 102.734 155.969 106.932C163.233 111.131 171.578 113.081 179.949 112.538C188.321 111.994 196.344 108.981 203.004 103.879C209.663 98.7764 214.66 91.8142 217.364 83.8723C220.067 75.9304 220.355 67.3652 218.192 59.2596C216.028 51.1539 211.51 43.8717 205.208 38.3334C201.021 34.6533 196.15 31.8345 190.872 30.0381C185.595 28.2418 180.015 27.503 174.453 27.8642C168.89 28.2253 163.452 29.6792 158.452 32.1428C153.451 34.6065 148.985 38.0315 145.308 42.2221ZM202.391 92.3361C198.019 97.3186 192.268 100.893 185.865 102.606C179.462 104.32 172.694 104.096 166.418 101.963C160.142 99.8299 154.64 95.8835 150.607 90.623C146.575 85.3624 144.193 79.024 143.763 72.4095C143.333 65.795 144.874 59.2015 148.192 53.4631C151.509 47.7247 156.454 43.0992 162.401 40.1716C168.348 37.244 175.03 36.1458 181.601 37.016C188.172 37.8862 194.337 40.6856 199.317 45.0602C205.992 50.9233 210.065 59.1968 210.641 68.0619C211.217 76.927 208.25 85.6582 202.391 92.3361Z" fill="#A6A6A6"/>
<path d="M226.88 109.342L222.438 114.403C220.899 116.156 221.073 118.824 222.825 120.362L250.686 144.819C252.439 146.357 255.107 146.183 256.645 144.431L261.088 139.37C262.626 137.617 262.452 134.95 260.7 133.411L232.839 108.955C231.087 107.416 228.419 107.59 226.88 109.342Z" fill="#3E3F3C"/>
<path d="M161.253 88.7956C161.224 88.761 161.198 88.7244 161.174 88.6861C160.683 88.2095 161.618 89.155 161.292 88.8503C160.966 88.5456 160.578 88.086 160.243 87.6881C159.052 86.2924 157.981 84.7985 157.041 83.2224C156.888 83.0089 156.777 82.7735 156.644 82.5538C156.597 82.4881 156.937 83.0895 156.68 82.603L156.454 82.1846C156.167 81.645 155.896 81.0936 155.645 80.5359C155.082 79.3132 154.603 78.054 154.21 76.7668C154.116 76.4616 154.032 76.1486 153.943 75.8396C153.819 75.4233 154.053 76.3161 153.919 75.7488L153.79 75.187C153.633 74.4709 153.498 73.7392 153.379 72.9957C153.26 72.2523 153.196 71.4116 153.152 70.6226C153.136 70.2531 153.123 69.8891 153.116 69.5212C153.104 68.8918 153.101 69.7889 153.114 69.3325L153.131 68.6741C153.229 66.7067 153.515 64.7532 153.986 62.8404C153.986 62.8404 154.092 62.4573 154.016 62.744C153.94 63.0307 154.056 62.5913 154.069 62.5404L154.306 61.7156C154.477 61.179 154.653 60.6386 154.863 60.1231C155.281 59.0113 155.755 57.9217 156.284 56.8583C156.41 56.5507 156.473 56.2214 156.471 55.8892C156.47 55.557 156.402 55.2284 156.274 54.9221C156.145 54.6159 155.957 54.338 155.721 54.1044C155.485 53.8707 155.205 53.6859 154.897 53.5604C154.589 53.4349 154.26 53.3713 153.928 53.3731C153.596 53.3749 153.267 53.4421 152.961 53.5709C152.655 53.6997 152.377 53.8875 152.143 54.1237C151.909 54.3599 151.725 54.6398 151.599 54.9474C148.26 61.7087 147.081 69.4485 148.965 76.7905C150.222 81.7351 152.55 86.3432 155.785 90.2883C156.498 91.1681 157.271 91.9984 158.097 92.7735C158.627 93.1826 159.297 93.3655 159.96 93.2823C160.624 93.1991 161.228 92.8565 161.64 92.3294C162.032 91.7924 162.205 91.1258 162.121 90.4661C162.038 89.8064 161.706 89.2035 161.192 88.7808L161.253 88.7956Z" fill="white"/>
</svg>
